<svg width="191" height="40" viewBox="0 0 191 40" fill="none" xmlns="http://www.w3.org/2000/svg">
<g id="Group">
<path id="Vector" d="M148.854 14.8489C146.421 14.8489 144.425 15.6962 143.006 17.3148L143.281 15.888C143.368 15.4364 143.06 15.0547 142.609 15.0547C142.157 15.0547 141.701 15.4364 141.616 15.888L137.412 37.7102C137.325 38.1618 137.633 38.5435 138.085 38.5435C138.536 38.5435 138.992 38.1618 139.079 37.7102L140.639 29.6052C141.214 30.6413 142.547 32.0621 145.539 32.0621C147.88 32.0621 149.843 31.3427 151.376 29.9219C152.958 28.4562 154.037 26.2751 154.583 23.4375C155.13 20.6019 154.889 18.4258 153.87 16.9701C152.885 15.5633 151.196 14.8489 148.854 14.8489ZM145.834 30.5354C142.274 30.5354 140.865 28.0815 141.759 23.4395C142.663 18.7535 144.916 16.3776 148.458 16.3776C152.328 16.3776 153.764 18.6876 152.849 23.4395C151.916 28.2803 149.687 30.5354 145.834 30.5354Z" fill="black"/>
<path id="Vector_2" d="M185.123 22.5173C183.012 21.734 181.017 20.9946 181.397 19.0263C181.587 18.0372 182.39 16.3766 185.624 16.3766C187.441 16.3766 188.588 16.8792 189.583 18.1121C189.769 18.3419 189.981 18.3419 190.072 18.3419C190.486 18.3419 190.903 17.9922 190.983 17.5776C191.027 17.3528 190.984 17.2199 190.885 17.043C190.881 17.036 190.877 17.029 190.872 17.022C189.863 15.5793 188.197 14.8479 185.919 14.8479C182.599 14.8479 180.228 16.4485 179.73 19.0253C179.137 22.1107 181.867 23.1428 184.277 24.054C186.359 24.8413 188.328 25.5847 187.963 27.4721C187.449 30.1368 184.656 30.5344 183.035 30.5344C180.801 30.5344 179.422 29.9269 178.422 28.5022C178.419 28.4982 178.415 28.4932 178.412 28.4892C178.288 28.3363 178.123 28.2594 177.924 28.2594C177.555 28.2594 177.1 28.5671 177.012 29.0237C176.968 29.2475 177.011 29.3794 177.11 29.5573C177.776 30.8032 179.776 32.0631 182.741 32.0631C186.501 32.0631 189.076 30.3466 189.629 27.4721C190.221 24.4067 187.512 23.4025 185.123 22.5173Z" fill="black"/>
<path id="Vector_3" d="M180.085 10.5395H178.326L178.665 8.78103C178.752 8.32942 178.444 7.94775 177.993 7.94775C177.541 7.94775 177.086 8.32942 176.999 8.78103L176.66 10.5395H174.901C174.45 10.5395 173.995 10.9212 173.908 11.3728C173.821 11.8244 174.129 12.2061 174.581 12.2061H176.339L176 13.9646C175.914 14.4162 176.221 14.7979 176.673 14.7979C177.124 14.7979 177.58 14.4162 177.666 13.9646L178.005 12.2061H179.763C180.214 12.2061 180.669 11.8244 180.756 11.3728C180.845 10.9222 180.537 10.5395 180.085 10.5395Z" fill="black"/>
<path id="Vector_4" d="M40.4686 27.4761C41.3229 27.9208 42.8606 28.5352 44.3303 28.5013C45.6632 28.5013 46.3805 27.7829 46.3805 26.8956C46.3805 26.0414 45.868 25.4609 44.4322 24.6406C42.6557 23.6155 41.3229 22.1797 41.3229 20.3003C41.3229 16.9852 44.1594 14.6272 48.2939 14.6272C50.1053 14.6272 51.5061 14.9689 52.2575 15.4135L51.1644 18.7626C50.515 18.4549 49.4559 18.1132 48.226 18.1132C46.8931 18.1132 46.0388 18.7287 46.0388 19.6848C46.0388 20.4362 46.6543 20.9837 47.8503 21.6332C49.6957 22.6923 51.2334 24.128 51.2334 26.1443C51.2334 29.9031 48.192 32.0222 43.9546 31.9883C42.0063 31.9543 40.1949 31.4407 39.3076 30.8263L40.4686 27.4761Z" fill="black"/>
<path id="Vector_5" d="M52.1904 31.8952L56.7695 7.9668H61.4854L59.674 17.2428L59.7419 17.1819C61.0058 15.6782 62.6464 14.6401 64.7306 14.6401C67.1915 14.6401 68.5923 16.2227 68.5923 18.8884C68.5923 19.7087 68.4554 21.0346 68.2506 22.0607L66.4052 31.8962H61.6893L63.4657 22.3554C63.6016 21.706 63.6716 20.8657 63.6716 20.2173C63.6716 19.1922 63.2619 18.4478 62.2018 18.4478C60.6981 18.4478 59.0915 20.4561 58.477 23.5664L56.9044 31.8962H52.1904V31.8952Z" fill="black"/>
<path id="Vector_6" d="M85.6466 21.1884C85.6466 27.0323 81.8868 32.022 76.3166 32.022C72.0793 32.022 69.8242 29.0826 69.8242 25.4257C69.8242 19.7186 73.584 14.592 79.2561 14.592C83.6653 14.593 85.6466 17.8053 85.6466 21.1884ZM74.6431 25.3238C74.6431 27.0323 75.3265 28.3992 76.9331 28.3992C79.427 28.3992 80.8288 23.956 80.8288 21.0515C80.8288 19.6507 80.2812 18.2159 78.6077 18.2159C76.0439 18.2149 74.6431 22.6231 74.6431 25.3238Z" fill="black"/>
<path id="Vector_7" d="M84.5195 38.5415L87.7997 21.2963C88.1764 19.348 88.5511 16.8282 88.7569 15.0547H92.9263L92.6525 17.7134H92.7205C93.9844 15.941 95.8308 14.751 97.7092 14.751C101.16 14.751 102.562 17.5076 102.562 20.6859C102.562 26.4279 98.9401 32.0831 93.4039 32.0831C92.2419 32.0831 91.1828 31.8942 90.6353 31.4516H90.5324L89.2335 38.5415H84.5195ZM91.2527 27.7838C91.7653 28.1934 92.3458 28.4672 93.2011 28.4672C95.8328 28.4672 97.6442 24.1269 97.6442 21.0855C97.6442 19.8216 97.1996 18.4888 95.7649 18.4888C94.1243 18.4888 92.5866 20.4371 92.0401 23.3756L91.2527 27.7838Z" fill="black"/>
<path id="Vector_8" d="M102.7 31.8951L105.878 15.0566H110.628L107.416 31.8951H102.7ZM108.818 13.2841C107.485 13.2841 106.597 12.1441 106.597 10.7433C106.597 9.20562 107.793 7.91772 109.297 7.91772C110.731 7.91772 111.654 9.04675 111.654 10.4136C111.621 12.1561 110.356 13.2851 108.887 13.2851L108.818 13.2841Z" fill="black"/>
<path id="Vector_9" d="M111.518 31.8951L114.012 18.6015H111.825L112.509 15.0566H114.696L114.833 14.2093C115.209 12.227 115.96 10.2137 117.566 8.84691C118.83 7.75385 120.505 7.25928 122.18 7.25928C123.342 7.25928 124.197 7.42314 124.743 7.66193L123.821 11.3488C123.411 11.2129 122.933 11.108 122.317 11.108C120.745 11.108 119.787 12.6037 119.515 14.2103L119.344 15.0566H122.624L121.975 18.6015H118.728L116.234 31.8951H111.518Z" fill="black"/>
<path id="Vector_10" d="M128.468 15.0566L129.22 22.5942C129.425 24.2687 129.561 25.6915 129.629 26.5777H129.697C130.074 25.6915 130.416 24.3706 131.099 22.5602L133.969 15.0576H138.89L133.115 27.385C131.065 31.6224 129.083 34.7107 126.93 36.727C125.255 38.2987 123.273 39.074 122.315 39.2788L121.017 35.2742C121.803 35.0005 122.793 34.5878 123.682 33.9394C124.775 33.188 125.699 32.1609 126.245 31.1018C126.381 30.863 126.416 30.7012 126.348 30.3595L123.511 15.0586L128.468 15.0566Z" fill="black"/>
<path id="Vector_11" d="M176.228 16.6403C175.776 16.6403 175.32 17.022 175.234 17.4736L173.641 25.7455C172.777 29.9588 170.189 30.5343 167.763 30.5343C163.394 30.5343 163.284 28.0455 163.752 25.6106L165.625 15.8889C165.712 15.4373 165.404 15.0557 164.952 15.0557C164.501 15.0557 164.045 15.4373 163.958 15.8889L162.086 25.6106C161.709 27.5699 161.843 29.0326 162.498 30.0807C163.32 31.3956 164.992 32.062 167.468 32.062C169.944 32.062 171.872 31.3946 173.201 30.0807C174.26 29.0326 174.959 27.5699 175.335 25.6106L176.902 17.4736C176.987 17.022 176.679 16.6403 176.228 16.6403Z" fill="black"/>
<path id="Vector_12" d="M161.172 7.9939C160.72 7.9939 160.265 8.37558 160.178 8.82719L155.903 31.0231C155.816 31.4747 156.124 31.8564 156.576 31.8564C157.027 31.8564 157.483 31.4747 157.57 31.0231L161.844 8.82719C161.931 8.37558 161.623 7.9939 161.172 7.9939Z" fill="black"/>
<g id="Group_2">
<path id="Vector_13" d="M23.1691 4.48479C23.1661 4.48579 22.7394 4.61769 22.0181 4.84149C21.8982 4.45083 21.7203 3.97024 21.4675 3.48765C20.6522 1.93199 19.4573 1.1077 18.0145 1.10571C18.0125 1.10571 18.0115 1.10571 18.0095 1.10571C17.9096 1.10571 17.8097 1.11469 17.7098 1.12368C17.6678 1.07273 17.6248 1.02177 17.5789 0.973813C16.9504 0.301391 16.1431 -0.026325 15.1779 0.00165094C13.3135 0.0556045 11.4571 1.40145 9.95244 3.7924C8.89235 5.47495 8.08804 7.58913 7.85924 9.22472C5.71908 9.88715 4.22137 10.3518 4.1894 10.3617C3.10932 10.7005 3.07535 10.7344 2.93348 11.7525C2.82657 12.5229 0 34.3831 0 34.3831L23.4538 38.4396V4.43684C23.3379 4.44483 23.234 4.46581 23.1691 4.48479ZM17.7537 6.16235C16.5128 6.54702 15.158 6.96666 13.7981 7.3873C14.1808 5.92356 14.9052 4.46581 15.7954 3.51063C16.1261 3.15594 16.5897 2.75929 17.1383 2.53248C17.6548 3.60756 17.7657 5.13224 17.7537 6.16235ZM15.2139 1.24259C15.6515 1.2336 16.0202 1.32951 16.3349 1.53633C15.8314 1.7981 15.3438 2.17378 14.8872 2.66336C13.7032 3.93327 12.796 5.90557 12.4343 7.80794C11.3053 8.15763 10.2012 8.49935 9.1861 8.81408C9.82655 5.81965 12.3364 1.32552 15.2139 1.24259ZM11.587 18.3019C11.7129 20.2972 16.9624 20.7328 17.2572 25.4068C17.489 29.0836 15.3068 31.5985 12.1625 31.7973C8.38878 32.0351 6.31157 29.809 6.31157 29.809L7.11088 26.4069C7.11088 26.4069 9.20208 27.9846 10.8756 27.8787C11.9687 27.8097 12.3594 26.9205 12.3204 26.291C12.1565 23.6883 7.88222 23.8411 7.61145 19.5648C7.38465 15.9659 9.74762 12.3191 14.9631 11.9893C16.9724 11.8624 18.0015 12.375 18.0015 12.375L16.8085 16.8362C16.8085 16.8362 15.4787 16.2307 13.901 16.3296C11.588 16.4775 11.5631 17.9362 11.587 18.3019ZM18.9927 5.77769C18.9787 4.8335 18.8658 3.52062 18.4261 2.3856C19.8409 2.65337 20.5373 4.25399 20.8311 5.20817C20.2866 5.37802 19.6661 5.56987 18.9927 5.77769Z" fill="black"/>
<path id="Vector_14" d="M24.2295 38.3466L33.9591 35.9276C33.9591 35.9276 29.7697 7.604 29.7437 7.40916C29.7168 7.21533 29.5469 7.10742 29.407 7.09543C29.2672 7.08344 26.5275 7.04247 26.5275 7.04247C26.5275 7.04247 24.857 5.42087 24.2295 4.8064V38.3466Z" fill="black"/>
</g>
</g>
</svg>
